<svg class="img-fluid" id="outputsvg" xmlns="http://www.w3.org/2000/svg" aria-hidden="false" width="24" height="24" viewBox="0 0 24 24"><g fill="none" fill-rule="evenodd"><g id="l5XCufQ8ufAPXa9SMFDtmg6" fill="rgb(5,6,10)" style="transform: none;"><g><path id="pKzaP0wcW" d="M52 1248 c3 -34 1 -33 183 -120 30 -14 55 -35 63 -51 7 -14 26 -34 42 -43 49 -30 63 -84 34 -133 -27 -46 -51 -55 -149 -56 -116 0 -135 -11 -135 -70 l0 -45 39 0 c23 0 41 5 43 13 3 8 36 13 106 15 l102 4 0 -56 0 -56 -40 0 c-21 0 -62 -5 -90 -11 -38 -8 -55 -8 -63 0 -6 6 -19 11 -29 11 -14 0 -18 8 -18 35 0 33 -2 35 -35 35 -35 0 -35 0 -35 -45 0 -38 3 -45 20 -45 15 0 20 -7 20 -29 0 -40 20 -53 94 -58 47 -4 72 -1 96 11 18 9 43 16 56 16 18 0 23 -6 26 -32 3 -31 5 -33 43 -33 l40 0 -3 98 -3 97 116 0 115 0 0 -55 c0 -32 -7 -68 -18 -88 -16 -32 -21 -35 -77 -40 -33 -3 -61 -10 -63 -16 -2 -6 -17 -11 -34 -11 l-30 0 4 -65 c2 -35 7 -68 12 -72 4 -4 59 -10 122 -12 110 -3 114 -2 114 17 0 54 23 122 51 151 28 30 69 42 69 21 0 -5 11 -10 24 -10 14 0 28 -4 31 -10 8 -13 72 -13 80 0 3 6 30 10 60 10 51 0 54 -1 64 -31 16 -47 14 -68 -17 -127 -32 -62 -167 -202 -195 -202 -16 0 -19 -6 -15 -39 l3 -38 -135 -8 c-211 -13 -285 -9 -334 14 -23 12 -57 21 -74 21 l-32 0 0 -55 c0 -53 1 -55 26 -55 23 0 25 3 20 26 -6 23 -4 25 11 19 81 -33 176 -39 313 -22 116 15 195 11 239 -12 11 -6 24 -11 30 -11 15 0 14 83 -1 99 -11 10 -9 14 7 23 44 23 166 159 190 210 49 105 26 220 -55 276 -36 25 -39 31 -40 73 0 40 -3 46 -27 55 l-28 10 30 14 c17 8 38 31 47 50 20 40 24 135 6 146 -8 5 -6 11 6 19 16 12 18 24 41 253 5 50 4 52 -19 52 -32 0 -36 -14 -36 -135 0 -81 -3 -105 -16 -116 -11 -9 -15 -28 -13 -73 3 -93 -16 -133 -41 -86 -8 14 -21 20 -47 20 l-36 0 6 -47 c2 -27 8 -56 12 -65 6 -16 1 -18 -39 -18 -41 0 -46 -2 -46 -22 0 -39 -13 -50 -43 -39 -22 9 -27 17 -27 46 l0 35 -175 0 -176 0 22 29 c12 17 25 47 28 68 5 29 11 39 29 41 18 3 22 10 22 36 0 29 4 34 31 40 17 3 49 6 70 6 33 0 40 -4 45 -25 6 -24 50 -45 97 -45 9 0 17 -7 17 -15 0 -11 11 -15 36 -15 l36 0 -6 78 c-3 42 -8 94 -12 115 -6 35 -8 37 -44 37 -40 0 -50 11 -50 55 0 43 -10 55 -48 55 l-35 0 7 -79 6 -78 -106 -7 c-105 -7 -105 -7 -130 19 -13 14 -24 30 -24 35 0 21 74 78 115 90 25 7 45 17 45 21 0 5 25 9 55 9 42 0 55 3 55 15 0 13 -21 15 -132 15 -120 0 -135 -2 -165 -22 -18 -13 -36 -33 -39 -46 -4 -13 -9 -21 -13 -20 -7 5 -96 45 -133 61 -16 7 -28 15 -28 19 0 5 -27 8 -61 8 l-60 0 3 -32z m968 -574 c0 -31 -2 -35 -15 -24 -13 11 -15 7 -15 -24 0 -33 -2 -36 -30 -36 -29 0 -30 2 -30 45 0 45 0 45 35 45 24 0 35 5 35 15 0 8 5 15 10 15 6 0 10 -16 10 -36z m-380 -250 c0 -11 -5 -14 -16 -10 -9 3 -29 6 -45 6 -16 0 -29 5 -29 10 0 6 20 10 45 10 35 0 45 -4 45 -16z"></path><path id="pFoeZ12Db" d="M2 1123 c3 -32 11 -102 18 -155 12 -83 17 -98 32 -98 15 0 18 9 18 63 0 34 -7 98 -15 142 -8 44 -14 86 -15 93 0 6 -9 12 -21 12 -19 0 -20 -4 -17 -57z"></path><path id="pr66pNn90" d="M70 304 c16 -42 65 -106 113 -151 43 -40 45 -44 36 -75 -16 -58 -12 -78 16 -78 17 0 25 5 25 18 0 10 7 27 15 38 8 10 14 35 14 54 0 29 -8 41 -47 74 -48 40 -112 117 -112 135 0 6 -16 11 -35 11 -33 0 -34 -1 -25 -26z"></path></g></g><g id="l7PmuMOD2tARCV6ZBTBaINr" fill="rgb(37,7,6)" style="transform: none;"><g><path id="p1HTSsv8aI" d="M652 1271 c-8 -4 -12 -19 -10 -32 2 -20 10 -25 41 -27 36 -3 37 -3 37 32 0 33 -3 36 -27 36 -16 0 -34 -4 -41 -9z"></path><path id="pHwB2qEri" d="M174 1221 c10 -16 46 -20 46 -5 0 8 -10 14 -26 14 -14 0 -23 -4 -20 -9z"></path><path id="pUBlTQSmP" d="M150 1185 c0 -22 4 -25 35 -25 24 0 35 -5 35 -15 0 -8 11 -17 25 -21 14 -3 25 -10 25 -15 0 -5 17 -9 38 -9 l37 1 -34 29 c-19 16 -51 35 -70 41 -20 6 -40 15 -46 19 -30 21 -45 19 -45 -5z"></path><path id="pNISzPJ6C" d="M3 1168 c3 -18 13 -73 22 -123 9 -49 15 -110 14 -135 -2 -25 -2 -107 -1 -182 l2 -138 24 0 c13 0 29 -7 36 -15 7 -8 21 -15 31 -15 11 0 19 -4 19 -10 0 -5 18 -10 40 -10 50 0 55 25 8 35 -36 8 -58 22 -58 37 0 5 10 2 22 -6 32 -23 68 -21 68 3 0 13 -9 21 -30 26 -16 4 -30 12 -30 20 0 7 -7 18 -15 25 -11 9 -12 17 -5 30 13 23 13 70 1 70 -5 0 -11 -6 -14 -12 -2 -7 -8 -10 -12 -6 -31 29 66 68 116 48 36 -15 99 -5 99 15 0 11 -11 15 -39 15 -21 0 -66 3 -100 6 -58 7 -61 6 -61 -15 0 -16 -6 -21 -24 -21 -27 0 -29 6 -41 155 -3 39 -13 105 -21 149 -8 43 -14 80 -14 82 0 2 -10 4 -21 4 -19 0 -21 -4 -16 -32z"></path><path id="p13p3BvFr5" d="M275 1175 c56 -27 65 -29 65 -15 0 6 -5 10 -11 10 -6 0 -17 7 -25 15 -9 8 -30 15 -47 15 -31 0 -30 -1 18 -25z"></path><path id="p13lEXzAze" d="M710 1125 c0 -10 44 -45 57 -45 7 0 13 11 13 25 0 22 -4 25 -35 25 -19 0 -35 -2 -35 -5z"></path><path id="p19g9Iq7B9" d="M710 1078 c0 -12 7 -18 23 -17 15 0 17 2 7 6 -8 3 -18 11 -22 17 -5 7 -8 4 -8 -6z"></path><path id="p13pWysfao" d="M411 1058 c17 -34 19 -34 19 -5 0 18 -5 27 -15 27 -13 0 -14 -4 -4 -22z"></path><path id="pLLilXp7s" d="M360 1041 c0 -26 4 -31 25 -31 35 0 32 18 -7 49 -16 12 -18 11 -18 -18z"></path><path id="pwaXraBv7" d="M500 1050 c0 -5 18 -10 39 -10 22 0 43 5 46 10 4 6 -12 10 -39 10 -25 0 -46 -4 -46 -10z"></path><path id="pkbbUMpAp" d="M1023 1043 c-32 -4 -33 -6 -33 -49 0 -32 -6 -49 -20 -61 -11 -10 -20 -23 -20 -30 0 -7 -6 -13 -14 -13 -17 0 -26 -22 -26 -61 0 -22 5 -29 20 -29 15 0 20 -7 20 -25 0 -14 5 -25 10 -25 13 0 13 10 -5 60 -8 23 -15 45 -15 49 1 14 40 -45 40 -61 0 -26 19 -32 41 -13 18 18 18 18 -1 35 -11 10 -20 20 -20 24 0 11 28 6 34 -6 3 -9 9 -7 21 7 12 15 15 35 11 82 -3 46 -1 65 10 74 8 6 14 20 14 30 0 19 -3 20 -67 12z"></path><path id="ptD06jHLg" d="M518 1023 c-10 -2 -18 -11 -18 -19 0 -10 13 -14 45 -14 38 0 45 3 45 20 0 15 -6 20 -27 19 -16 -1 -36 -3 -45 -6z"></path><path id="pDKHFSGxz" d="M670 975 c0 -34 1 -35 40 -35 46 0 56 24 15 34 -14 4 -25 13 -25 21 0 8 -7 15 -15 15 -10 0 -15 -11 -15 -35z"></path><path id="pHeNQ8qx0" d="M819 953 c-1 -17 -3 -21 -6 -10 -8 31 -33 20 -33 -15 1 -47 20 -68 64 -68 l36 0 0 45 c0 25 -4 45 -10 45 -5 0 -10 7 -10 15 0 8 -9 15 -20 15 -15 0 -20 -7 -21 -27z"></path><path id="p1EyHzIYOc" d="M178 789 c-9 -6 -4 -9 15 -9 17 0 27 -5 27 -15 0 -23 105 -21 114 1 4 9 5 18 4 19 -9 8 -149 11 -160 4z"></path><path id="p1C4snApx9" d="M820 675 c0 -29 12 -32 34 -9 23 22 20 34 -9 34 -20 0 -25 -5 -25 -25z"></path><path id="pKw9LkjUg" d="M330 640 c0 -5 -16 -10 -35 -10 -19 0 -35 -5 -35 -11 0 -7 16 -9 49 -4 31 4 51 3 56 -4 4 -7 -7 -11 -32 -11 -35 -1 -73 -18 -73 -34 0 -3 16 -6 35 -6 19 0 35 3 35 8 0 4 18 6 40 4 l40 -4 0 41 0 41 -40 0 c-22 0 -40 -4 -40 -10z"></path><path id="pFGWORDpm" d="M1052 588 c3 -41 5 -43 37 -46 l33 -3 -33 45 c-18 25 -34 46 -36 46 -2 0 -3 -19 -1 -42z"></path><path id="pMaC2pL09" d="M43 468 c6 -111 21 -168 43 -168 8 0 14 -6 14 -13 0 -8 9 -22 20 -32 20 -18 20 -17 20 18 0 21 -4 37 -8 37 -14 0 -52 153 -52 209 0 45 -2 51 -21 51 -21 0 -22 -3 -16 -102z"></path><path id="p2DHkf54O" d="M700 555 c0 -8 -4 -15 -10 -15 -5 0 -9 -15 -9 -32 1 -22 3 -26 6 -13 3 11 12 29 19 40 17 23 18 35 4 35 -5 0 -10 -7 -10 -15z"></path><path id="pXnaDt9L2" d="M741 540 c-40 -43 -46 -70 -15 -70 13 0 24 6 24 13 0 7 9 19 20 27 20 15 28 60 10 60 -5 0 -23 -14 -39 -30z"></path><path id="pdIz3QHnt" d="M443 525 c-6 -17 0 -53 20 -130 l14 -50 54 -7 c102 -12 119 -10 119 12 0 17 -7 20 -51 20 -30 0 -48 4 -44 10 3 5 25 7 50 3 31 -4 45 -2 45 6 0 6 -13 11 -30 11 -16 0 -30 5 -30 10 0 6 -11 10 -24 10 -26 0 -36 16 -36 60 0 16 -3 35 -6 44 -8 21 -72 22 -81 1z m77 -112 c0 -12 6 -24 13 -26 7 -4 6 -6 -4 -6 -17 -1 -29 26 -29 64 0 17 2 17 10 5 5 -8 10 -25 10 -37z"></path><path id="p4KeduZq5" d="M870 485 l0 -35 55 0 55 0 0 35 0 35 -55 0 -55 0 0 -35z"></path><path id="pqB1TTlBV" d="M1105 425 c-5 -55 -11 -75 -21 -75 -8 0 -14 -6 -14 -14 0 -8 -5 -16 -11 -18 -6 -2 -9 -19 -7 -38 l3 -35 28 36 c57 75 85 219 43 219 -10 0 -16 -23 -21 -75z"></path><path id="pdsLrz1uO" d="M970 200 c0 -28 -3 -30 -35 -30 -28 0 -35 -4 -35 -20 0 -12 7 -20 18 -20 16 1 69 44 101 83 12 15 10 17 -18 17 -28 0 -31 -3 -31 -30z"></path><path id="pClHy7Kst" d="M233 135 c26 -24 27 -26 13 -47 -22 -31 -20 -58 3 -58 14 0 20 10 25 46 11 82 10 84 -31 84 l-38 -1 28 -24z"></path><path id="p13Ycaa57Z" d="M290 55 c0 -48 2 -55 20 -55 17 0 20 7 20 40 0 22 1 40 3 40 1 0 20 -9 42 -20 51 -26 85 -26 85 0 0 16 -9 21 -50 26 -27 4 -50 10 -50 15 0 5 -16 9 -35 9 l-35 0 0 -55z"></path><path id="pUkjsNiki" d="M643 77 c-63 -8 -73 -13 -73 -30 0 -18 5 -19 43 -13 23 4 86 9 139 13 78 5 105 3 138 -11 24 -9 45 -15 47 -12 10 10 -9 66 -23 66 -8 0 -14 -4 -14 -10 0 -5 -9 -10 -20 -10 -11 0 -20 5 -20 10 0 12 -118 11 -217 -3z"></path></g></g><g id="l7NsTj2qx9NpRh812aoMoBA" fill="rgb(59,18,15)" style="transform: none;"><g><path id="p115TPx6g4" d="M40 1255 c0 -21 5 -25 30 -25 25 0 30 -4 30 -25 0 -22 4 -25 35 -25 47 0 44 13 -9 44 -24 14 -46 32 -50 41 -9 25 -36 18 -36 -10z"></path><path id="psfJJjuFJ" d="M140 1240 c0 -5 7 -10 15 -10 8 0 15 5 15 10 0 6 -7 10 -15 10 -8 0 -15 -4 -15 -10z"></path><path id="puOJk9bRN" d="M285 1170 c3 -5 13 -10 21 -10 8 0 14 5 14 10 0 6 -9 10 -21 10 -11 0 -17 -4 -14 -10z"></path><path id="pnFfXIXFS" d="M250 1151 c0 -5 -9 -11 -20 -14 -14 -3 -20 -14 -20 -31 0 -26 -1 -26 -75 -26 -73 0 -75 1 -75 25 0 19 -5 25 -21 25 -19 0 -20 -4 -15 -32 4 -18 13 -94 21 -168 7 -74 14 -136 14 -137 1 -2 8 -3 18 -3 14 0 15 11 10 95 l-6 95 27 -14 c15 -8 35 -22 44 -32 22 -25 41 -74 28 -74 -6 0 -10 -9 -10 -20 0 -13 7 -20 19 -20 10 0 33 -3 51 -6 l32 -7 -3 79 -4 79 43 -4 42 -3 0 36 c0 46 16 47 24 1 5 -26 12 -35 26 -35 37 0 25 48 -22 94 -24 22 -42 44 -41 48 3 8 -66 58 -79 58 -5 0 -8 -4 -8 -9z"></path><path id="p13Q6eM1qI" d="M370 1090 c0 -5 7 -10 15 -10 8 0 15 5 15 10 0 6 -7 10 -15 10 -8 0 -15 -4 -15 -10z"></path><path id="pDDLn7KUG" d="M420 1040 c12 -22 15 -23 45 -10 19 8 19 9 -2 9 -13 1 -23 6 -23 11 0 6 -7 10 -15 10 -13 0 -14 -4 -5 -20z"></path><path id="pHEQGGCd5" d="M980 1021 c0 -29 4 -41 14 -41 9 0 12 -7 9 -17 -3 -14 -15 -18 -56 -19 -79 -1 -106 -10 -100 -34 3 -11 0 -20 -6 -20 -6 0 -11 -9 -11 -20 0 -13 7 -20 18 -20 10 0 27 -7 38 -15 10 -8 27 -15 37 -15 9 0 17 -7 17 -15 0 -8 5 -15 11 -15 7 0 8 7 4 18 -15 36 -17 52 -6 52 6 0 17 -16 25 -35 19 -44 36 -45 36 -1 0 24 7 38 25 52 26 19 32 48 16 73 -8 12 -11 8 -17 -15 -9 -37 -22 -54 -42 -54 -12 0 -11 5 6 20 16 15 22 32 22 65 0 46 7 54 29 33 10 -11 12 -6 9 22 -3 33 -6 35 -40 38 l-38 3 0 -40z"></path><path id="p1GKqdSd1R" d="M486 1012 c-9 -15 6 -52 20 -52 9 0 14 11 14 30 0 29 -21 42 -34 22z"></path><path id="phpaW93pe" d="M195 790 c3 -5 18 -10 33 -9 24 0 25 1 7 9 -28 12 -47 12 -40 0z"></path><path id="pHi1Ec8LD" d="M60 690 c0 -44 -4 -70 -11 -70 -7 0 -9 -27 -4 -87 8 -117 14 -143 31 -143 11 0 14 21 14 105 0 81 3 107 14 111 12 4 12 10 -1 35 -9 18 -13 48 -11 74 3 38 0 45 -14 45 -16 0 -18 -10 -18 -70z"></path><path id="pQmBFIuyf" d="M111 698 c-1 -20 4 -40 9 -43 12 -7 12 19 0 55 -7 22 -8 21 -9 -12z"></path><path id="pZ8U7eRXC" d="M318 633 c-27 -2 -48 -8 -48 -14 0 -5 22 -7 54 -3 35 4 56 3 60 -5 5 -7 -6 -11 -32 -11 -22 0 -56 -7 -75 -15 -20 -8 -50 -15 -67 -15 -24 0 -30 -4 -30 -21 0 -20 4 -21 57 -17 31 3 59 10 61 16 5 15 58 16 67 2 3 -5 15 -10 26 -10 16 0 19 7 19 50 0 46 -2 50 -22 48 -13 -1 -44 -3 -70 -5z"></path><path id="pzwaUSlpp" d="M432 610 c0 -19 2 -27 5 -17 2 9 2 25 0 35 -3 9 -5 1 -5 -18z"></path><path id="pKi7QaHqa" d="M210 600 c-12 -8 -12 -10 5 -10 11 0 27 5 35 10 12 8 12 10 -5 10 -11 0 -27 -5 -35 -10z"></path><path id="pvVtyYCln" d="M1050 590 c0 -14 7 -20 22 -20 20 0 21 1 3 20 -10 11 -20 20 -22 20 -1 0 -3 -9 -3 -20z"></path><path id="pZu3L3Q6c" d="M915 570 c-4 -6 5 -10 21 -10 22 0 25 -2 14 -15 -10 -12 -16 -13 -26 -4 -11 9 -14 5 -14 -20 0 -25 4 -31 23 -32 18 -1 19 -2 4 -6 -13 -3 -17 -11 -14 -23 4 -17 -2 -19 -52 -22 l-56 -3 -3 -37 c-3 -34 -1 -38 20 -38 13 0 40 -9 61 -20 20 -11 52 -20 71 -20 32 0 36 3 45 38 16 56 13 147 -6 187 -14 29 -22 35 -49 35 -18 0 -36 -4 -39 -10z"></path><path id="p1DamO7Tpd" d="M432 541 c-16 -37 -7 -71 19 -71 12 0 19 -7 19 -20 0 -11 5 -20 10 -20 13 0 13 12 0 44 -5 14 -6 28 -1 30 4 3 15 -12 24 -34 20 -51 37 -51 37 0 0 28 -4 40 -14 40 -9 0 -16 12 -18 28 -2 22 -9 28 -33 30 -25 2 -32 -2 -43 -27z"></path><path id="pBAPpJhbl" d="M653 485 c1 -39 21 -47 31 -12 10 37 7 47 -13 47 -15 0 -19 -7 -18 -35z"></path><path id="pFdYeWQlR" d="M706 482 c-4 -13 -5 -26 -2 -29 10 -11 18 4 14 29 l-4 23 -8 -23z"></path><path id="pFznnT8ap" d="M472 343 l3 -68 42 -3 c23 -2 52 2 64 8 15 9 24 9 32 1 13 -13 83 -15 91 -2 3 4 8 34 12 65 6 48 4 56 -10 56 -9 0 -16 -6 -16 -14 0 -16 -49 -23 -129 -18 -42 3 -54 8 -58 23 -3 10 -12 19 -20 19 -11 0 -13 -14 -11 -67z"></path><path id="pxafcWVzw" d="M520 399 c0 -9 139 -23 147 -15 4 3 4 8 2 10 -8 7 -149 12 -149 5z"></path><path id="p6W0emRrV" d="M76 343 c11 -34 27 -63 36 -63 4 0 8 18 8 40 0 36 -3 40 -25 40 -19 0 -23 -4 -19 -17z"></path><path id="pEyUeDW9e" d="M229 164 c-11 -14 -10 -18 9 -33 22 -16 22 -18 8 -46 -23 -44 -21 -85 4 -85 17 0 20 7 20 40 0 29 4 40 15 40 8 0 15 -7 15 -15 0 -8 5 -15 10 -15 6 0 10 7 10 15 0 19 10 19 46 0 16 -8 37 -15 47 -15 21 0 23 35 2 44 -8 3 -15 17 -15 31 0 15 -6 25 -14 25 -8 0 -16 7 -20 15 -8 22 -119 21 -137 -1z"></path><path id="p18nGHJ8qw" d="M860 134 c0 -40 18 -64 49 -64 25 0 26 8 5 38 -14 20 -14 22 0 22 9 0 16 9 16 20 0 16 -7 20 -35 20 -33 0 -35 -2 -35 -36z"></path><path id="p1BQpkLPq5" d="M655 80 c-27 -5 -85 -9 -127 -9 -61 -1 -78 -4 -78 -16 0 -23 66 -29 175 -16 128 16 145 20 145 37 0 15 -32 16 -115 4z"></path></g></g><g id="l2zogSPgsEnGl2XZgh1lICl" fill="rgb(13,36,44)" style="transform: none;"><g><path id="pCwl6ca2N" d="M690 1258 c-1 -21 -2 -22 -14 -5 -17 22 -36 22 -36 0 0 -10 5 -53 12 -95 11 -71 14 -78 35 -78 13 0 23 -6 23 -14 0 -14 29 -26 63 -26 29 0 19 17 -14 24 -44 9 -55 24 -62 91 -5 41 -4 55 3 45 5 -8 10 -28 10 -45 0 -16 5 -37 10 -45 7 -10 10 10 10 66 0 49 -5 85 -12 92 -18 18 -28 14 -28 -10z"></path><path id="p16uTTBQTz" d="M420 1260 c0 -5 -7 -10 -15 -10 -8 0 -15 -7 -15 -15 0 -8 -7 -15 -15 -15 -11 0 -15 -10 -14 -37 1 -37 1 -37 9 -10 10 33 29 50 85 77 l40 20 -37 0 c-21 0 -38 -4 -38 -10z"></path><path id="pFxgclnaM" d="M458 1236 c-30 -16 -78 -64 -78 -77 0 -5 11 -9 25 -9 16 0 25 6 25 15 0 8 7 15 15 15 8 0 15 5 15 10 0 6 7 10 15 10 9 0 15 9 15 25 0 29 2 29 -32 11z"></path><path id="p2WqczeuH" d="M750 1090 c0 -5 7 -10 15 -10 8 0 15 5 15 10 0 6 -7 10 -15 10 -8 0 -15 -4 -15 -10z"></path><path id="pJCYTnUi9" d="M397 1072 c10 -10 23 -27 28 -36 8 -14 15 -15 35 -7 14 5 20 10 13 10 -6 1 -13 11 -15 24 -2 18 -10 23 -41 25 -37 3 -38 3 -20 -16z"></path><path id="pCkciSI0d" d="M800 1068 c0 -13 5 -30 10 -38 7 -11 10 -5 10 23 0 20 -4 37 -10 37 -5 0 -10 -10 -10 -22z"></path><path id="pEjghZg1O" d="M530 1060 c0 -21 16 -25 58 -14 39 11 27 34 -18 34 -33 0 -40 -3 -40 -20z"></path><path id="p15PBEupFr" d="M380 1043 c0 -19 11 -43 21 -43 13 0 11 14 -6 36 -8 10 -15 14 -15 7z"></path><path id="pfGgpz6P0" d="M545 1020 c-15 -7 -10 -9 23 -9 23 -1 42 4 42 9 0 12 -37 12 -65 0z"></path><path id="p6AomKXVt" d="M720 1015 c0 -17 30 -35 59 -35 14 0 21 6 21 20 0 24 -6 25 -27 5 -8 -9 -18 -13 -22 -9 -3 4 0 9 7 11 21 8 13 23 -13 23 -15 0 -25 -6 -25 -15z"></path><path id="p10KRUgHWO" d="M490 986 c0 -28 -4 -35 -22 -39 -20 -4 -19 -4 5 -6 25 -1 27 2 27 39 0 22 -2 40 -5 40 -3 0 -5 -15 -5 -34z"></path><path id="pufggFsYp" d="M447 1003 c-13 -12 -7 -33 8 -33 8 0 15 9 15 20 0 20 -11 26 -23 13z"></path><path id="pmVzCmnk0" d="M715 960 c3 -5 25 -10 48 -9 36 1 38 2 17 9 -36 12 -72 12 -65 0z"></path><path id="pekwknctL" d="M523 753 c15 -2 37 -2 50 0 12 2 0 4 -28 4 -27 0 -38 -2 -22 -4z"></path><path id="pBocGOTV9" d="M500 710 c0 -17 7 -20 45 -20 38 0 45 3 45 20 0 17 -7 20 -45 20 -38 0 -45 -3 -45 -20z"></path></g></g><g id="l3qdWtmVorEK0pbi0cUWhsi" fill="rgb(85,24,20)" style="transform: none;"><g><path id="ptc894rDU" d="M30 1246 c0 -18 4 -46 9 -62 6 -16 15 -54 21 -84 l10 -55 88 0 c48 0 95 -4 105 -9 24 -12 23 19 -2 41 -26 22 -18 33 25 33 19 0 34 4 34 9 0 9 -160 91 -177 91 -5 0 -26 16 -47 35 -49 45 -66 45 -66 1z"></path><path id="pEaY0ShRx" d="M120 1258 c26 -24 34 -28 145 -79 39 -17 73 -33 78 -36 4 -2 7 0 7 5 0 9 -158 92 -175 92 -4 0 -18 9 -32 20 -35 27 -54 25 -23 -2z"></path><path id="pTkMPC9cG" d="M1050 1050 c0 -5 -16 -10 -35 -10 l-35 0 0 -50 c0 -46 -2 -50 -24 -50 -15 0 -26 -7 -29 -17 -4 -15 -5 -16 -6 -2 -2 28 -91 42 -91 14 0 -8 5 -15 10 -15 6 0 10 -7 10 -15 0 -20 -10 -19 -26 3 -12 15 -13 13 -14 -21 l0 -38 42 3 c44 3 67 28 26 28 -22 1 -22 1 -4 15 14 11 22 11 38 2 16 -10 22 -9 34 7 8 11 14 14 14 8 0 -17 35 -15 50 3 8 10 11 33 8 65 l-5 51 24 -23 c24 -23 25 -23 39 -4 21 29 18 56 -6 56 -11 0 -20 -4 -20 -10z"></path><path id="pODsDswRU" d="M171 1010 c43 -33 62 -71 70 -140 l7 -65 -2 71 -2 72 32 -24 c17 -14 45 -24 62 -24 31 0 32 1 32 45 0 33 -6 51 -22 68 l-23 22 -3 -22 c-4 -27 -3 -27 -45 -9 -18 7 -55 16 -82 20 l-50 7 26 -21z"></path><path id="prk33oluz" d="M80 998 c0 -39 22 -193 29 -200 4 -5 31 2 60 14 l53 23 -5 44 c-6 53 -31 89 -83 118 -49 28 -54 28 -54 1z"></path><path id="p4zuZSiN8" d="M1030 917 c-12 -25 -22 -33 -47 -35 -18 -2 -33 -4 -33 -6 0 -1 9 -19 20 -41 11 -22 20 -45 20 -52 0 -11 5 -11 21 -3 18 10 20 19 17 61 -2 34 1 49 10 49 7 0 12 13 12 30 0 17 -1 30 -2 30 -2 0 -10 -15 -18 -33z"></path><path id="pkCKLMq7W" d="M920 845 c0 -10 -10 -15 -31 -15 -29 0 -30 -2 -27 -37 3 -36 5 -38 41 -41 35 -3 37 -1 38 25 1 28 1 28 14 -7 9 -23 14 -28 14 -15 1 21 -34 105 -44 105 -3 0 -5 -7 -5 -15z"></path><path id="puLReapwv" d="M670 805 l0 -35 55 0 55 0 0 35 0 35 -55 0 -55 0 0 -35z"></path><path id="p7jOmYGkj" d="M180 790 c-13 -9 -13 -10 0 -10 8 0 22 5 30 10 13 9 13 10 0 10 -8 0 -22 -5 -30 -10z"></path><path id="p5goD6NNN" d="M277 623 c-10 -3 -30 -11 -45 -20 -26 -15 -26 -15 -2 -8 87 23 109 26 143 21 25 -4 36 -3 32 4 -6 10 -93 12 -128 3z"></path><path id="pBAbq5NTX" d="M310 593 c-8 -2 -29 -11 -47 -19 -17 -8 -36 -14 -42 -14 -6 0 -11 -10 -11 -21 0 -23 -4 -23 158 -2 34 4 42 2 42 -11 0 -9 7 -16 15 -16 9 0 21 -11 27 -25 12 -26 28 -34 28 -12 0 6 -7 21 -15 31 -17 23 -19 36 -6 36 6 0 20 -18 32 -40 27 -48 39 -51 39 -10 0 52 -26 90 -60 90 -23 0 -30 -5 -30 -19 0 -31 -19 -35 -30 -7 -14 38 -56 54 -100 39z"></path><path id="p5coaPGDi" d="M1050 575 c0 -28 -27 -35 -36 -10 -7 17 -84 22 -84 5 0 -5 6 -10 13 -10 15 0 47 -75 47 -110 0 -28 -18 -100 -26 -100 -2 0 -21 9 -41 20 -21 11 -48 20 -61 20 -14 0 -21 4 -16 11 6 11 47 8 92 -6 19 -7 22 -4 21 21 -1 16 -3 22 -6 13 -3 -14 -15 -15 -73 -11 l-70 5 0 -40 c0 -38 2 -40 40 -52 22 -6 48 -21 59 -32 14 -15 29 -20 57 -17 55 4 69 36 69 156 l0 92 43 0 c23 0 42 4 42 8 0 10 -53 62 -63 62 -4 0 -7 -11 -7 -25z"></path><path id="pFX0o4bQQ" d="M930 518 c0 -9 5 -20 11 -23 17 -11 18 -2 3 19 -12 17 -14 17 -14 4z"></path><path id="p1GefZt5zS" d="M560 389 c64 -11 110 -11 110 1 0 6 -32 9 -77 9 -72 -1 -74 -2 -33 -10z"></path><path id="pERDU9dcT" d="M530 350 c0 -11 3 -20 6 -20 3 0 17 9 31 20 l26 20 -32 0 c-24 0 -31 -4 -31 -20z"></path><path id="p15DyLWHyh" d="M630 366 c0 -2 7 -9 15 -16 12 -10 15 -10 15 4 0 9 -7 16 -15 16 -8 0 -15 -2 -15 -4z"></path><path id="pBpbrDLoB" d="M570 325 c-29 -21 -31 -25 -13 -25 11 0 26 7 33 15 9 11 16 13 24 5 17 -17 27 -11 14 10 -16 25 -15 25 -58 -5z"></path><path id="p14whFlc8J" d="M192 192 c-9 -6 -4 -16 18 -37 26 -25 33 -28 50 -17 24 15 66 16 75 2 4 -6 -6 -10 -24 -10 -36 0 -46 -14 -42 -60 4 -57 11 -70 36 -70 21 0 23 3 18 38 -4 28 0 44 15 62 11 14 24 22 28 18 4 -4 1 -14 -5 -22 -10 -12 -7 -18 18 -30 40 -21 41 -21 41 17 0 40 -28 77 -59 77 -11 0 -21 6 -21 14 0 8 -7 17 -16 20 -23 9 -117 7 -132 -2z"></path><path id="pmevRxqg4" d="M877 173 c-4 -3 -7 -21 -7 -40 0 -26 4 -33 20 -33 11 0 20 5 20 10 0 6 -4 10 -10 10 -5 0 -10 4 -10 9 0 5 8 7 19 4 10 -3 30 6 47 21 l29 25 -51 1 c-28 0 -54 -3 -57 -7z"></path></g></g><g id="l7ROHeiOpCtHBh7A0o5IAaa" fill="rgb(80,37,31)" style="transform: none;"><g><path id="pPjGu7VyA" d="M0 1231 c0 -27 4 -61 9 -74 35 -91 65 -435 52 -587 -5 -52 -5 -121 -1 -152 10 -71 58 -173 105 -221 33 -34 40 -37 75 -31 52 8 125 -33 146 -81 7 -19 23 -35 36 -39 36 -9 173 -7 288 5 96 11 110 10 163 -8 l57 -20 0 32 c0 18 -9 41 -21 54 -18 19 -19 25 -8 32 8 5 24 9 35 9 27 0 152 130 179 185 42 89 26 217 -29 227 -15 3 -29 1 -32 -3 -10 -17 -34 -9 -34 11 0 16 -7 20 -30 20 -23 0 -30 -4 -30 -20 0 -11 4 -20 9 -20 13 0 41 -76 41 -114 0 -40 -17 -95 -36 -116 -12 -12 -16 -11 -34 8 -11 11 -38 27 -60 33 -28 9 -40 17 -38 28 4 17 53 20 96 6 21 -7 22 -5 22 38 0 44 -1 46 -32 50 l-33 4 33 1 33 2 -21 30 c-13 19 -30 30 -45 30 -12 0 -26 7 -29 16 -9 23 -82 12 -110 -16 l-21 -21 45 1 c81 3 80 4 80 -40 0 -28 -4 -40 -14 -40 -22 0 -46 -29 -46 -56 0 -13 -6 -24 -12 -24 -7 0 -24 -3 -36 -7 l-24 -6 7 77 c5 52 4 76 -3 76 -19 0 -30 -31 -42 -118 -7 -45 -17 -85 -23 -89 -6 -3 -21 6 -33 21 l-24 27 -40 -27 c-56 -37 -67 -29 -72 53 -4 65 -31 143 -49 143 -5 0 -9 -19 -9 -42 l-1 -43 -14 26 c-8 15 -21 29 -30 33 -8 3 -15 10 -15 15 0 6 -11 22 -25 37 -24 26 -27 26 -64 15 -75 -22 -194 44 -207 116 -8 40 10 87 43 113 19 15 22 23 14 37 -5 10 -15 53 -21 97 -11 87 -15 96 -36 96 -19 0 -18 17 3 28 17 10 17 13 -14 155 -17 74 -19 77 -45 77 -27 0 -28 -2 -28 -49z"></path><path id="pupgkekWV" d="M744 1104 c3 -9 6 -18 6 -20 0 -2 7 -4 15 -4 8 0 15 5 15 10 0 6 5 10 10 10 6 0 10 -10 10 -22 0 -39 12 -68 26 -68 10 0 14 13 14 40 0 29 -4 40 -15 40 -8 0 -15 7 -15 15 0 11 -11 15 -36 15 -29 0 -35 -3 -30 -16z"></path><path id="pd1FwuOue" d="M370 1098 c0 -7 10 -18 22 -23 13 -6 28 -21 35 -35 7 -14 13 -19 13 -12 0 22 -18 48 -45 66 -18 12 -25 13 -25 4z"></path><path id="pSIRB2Wul" d="M300 1065 c7 -9 16 -32 21 -53 4 -20 11 -48 15 -62 l8 -25 -35 26 c-31 24 -89 49 -111 49 -5 0 1 -14 13 -32 17 -23 24 -50 27 -95 l4 -63 45 0 c81 0 133 51 133 129 0 81 -45 141 -106 141 -23 0 -25 -2 -14 -15z"></path><path id="pugmCZofV" d="M755 1050 c28 -12 37 -12 30 0 -3 6 -16 10 -28 9 -21 0 -21 -1 -2 -9z"></path><path id="pmdF3gd3m" d="M820 978 c0 -29 13 -58 25 -58 7 0 16 -6 18 -12 3 -7 6 2 6 20 1 22 -4 32 -14 32 -8 0 -15 7 -15 15 0 8 -4 15 -10 15 -5 0 -10 -6 -10 -12z"></path><path id="pRNUaqQPI" d="M760 940 c0 -11 7 -20 15 -20 9 0 15 -9 15 -25 0 -22 4 -25 35 -25 l34 0 -24 26 c-14 15 -25 35 -25 45 0 14 -7 19 -25 19 -18 0 -25 -5 -25 -20z"></path><path id="pfQRd70hW" d="M987 924 c-16 -21 -16 -24 -2 -24 16 0 30 22 23 39 -1 5 -11 -2 -21 -15z"></path><path id="p1EluzW8xB" d="M1040 935 c0 -9 -11 -27 -24 -40 -20 -20 -23 -31 -19 -69 3 -25 10 -46 14 -46 5 0 18 15 29 33 21 34 28 121 10 132 -5 3 -10 -1 -10 -10z"></path><path id="p94nW3OnA" d="M439 905 c-6 -40 -4 -53 7 -43 3 3 4 23 2 44 l-3 39 -6 -40z"></path><path id="p1CpdshXOz" d="M340 794 c-45 -12 -45 -12 -10 -13 19 0 42 3 50 9 24 15 8 17 -40 4z"></path><path id="ph0JTXlwN" d="M159 783 c-22 -5 -49 -56 -49 -90 1 -34 35 -78 73 -92 51 -20 62 -11 17 12 -38 18 -46 27 -48 55 -2 21 -9 32 -19 32 -10 0 -13 6 -9 16 3 9 6 18 6 20 0 2 11 4 25 4 20 0 25 5 25 25 0 14 -1 24 -2 24 -2 -1 -10 -3 -19 -6z"></path><path id="p8yPAlKgR" d="M840 735 c0 -24 5 -35 15 -35 8 0 15 7 15 15 0 11 12 15 50 15 43 0 50 3 50 20 0 18 -7 20 -65 20 l-65 0 0 -35z"></path><path id="pHME7JeYl" d="M918 703 c18 -2 45 -2 60 0 15 2 0 4 -33 4 -33 0 -45 -2 -27 -4z"></path><path id="p15LcjB3To" d="M760 684 c0 -12 34 -33 53 -34 10 0 17 7 17 20 0 16 -7 20 -35 20 -19 0 -35 -3 -35 -6z"></path><path id="pnpHrpCIg" d="M713 610 c0 -36 2 -50 4 -32 2 17 2 47 0 65 -2 17 -4 3 -4 -33z"></path><path id="pdkVu8ylJ" d="M260 630 c0 -21 16 -25 58 -14 39 11 27 34 -18 34 -33 0 -40 -3 -40 -20z"></path><path id="p11xSuqZZO" d="M740 609 c0 -26 3 -30 18 -23 9 4 40 10 67 14 47 7 47 7 12 9 -21 0 -45 8 -53 16 -26 25 -44 18 -44 -16z"></path><path id="pezKiwQDO" d="M900 570 c0 -5 7 -10 15 -10 8 0 15 5 15 10 0 6 -7 10 -15 10 -8 0 -15 -4 -15 -10z"></path><path id="prkLoC5HS" d="M490 513 c0 -5 5 -15 10 -23 8 -12 10 -11 10 8 0 12 -4 22 -10 22 -5 0 -10 -3 -10 -7z"></path><path id="p17LuhQNqZ" d="M630 510 c0 -5 -20 -10 -45 -10 -41 0 -45 -2 -45 -25 0 -19 -4 -23 -17 -18 -13 5 -15 2 -10 -11 4 -10 7 -26 7 -37 0 -12 7 -19 20 -19 13 0 20 7 20 20 0 17 6 20 43 19 23 -1 32 -4 20 -6 -15 -3 -23 -12 -23 -24 0 -15 7 -19 34 -19 33 0 34 2 41 48 3 26 9 57 12 70 4 19 1 22 -26 22 -17 0 -31 -4 -31 -10z m30 -30 c0 -6 -24 -10 -52 -9 -42 1 -48 3 -28 9 36 12 80 12 80 0z"></path><path id="p1BtBDLzFb" d="M262 107 c-15 -16 -22 -36 -22 -65 l0 -42 41 0 c38 0 40 2 32 23 -4 12 -8 41 -8 65 0 48 -12 53 -43 19z"></path></g></g><g id="l6U8D3wd6tBCAtCya4HoAjx" fill="rgb(6,65,83)" style="transform: none;"><g><path id="p152L1DO0U" d="M620 1250 c0 -15 7 -20 25 -20 18 0 25 5 25 20 0 15 -7 20 -25 20 -18 0 -25 -5 -25 -20z"></path><path id="p11UCYCtee" d="M350 1169 c0 -35 15 -31 22 6 4 17 1 25 -8 25 -9 0 -14 -11 -14 -31z"></path><path id="pNTatEm5V" d="M399 1184 c-9 -11 -20 -37 -23 -59 -6 -35 -4 -41 16 -50 13 -5 27 -20 33 -33 6 -14 15 -20 25 -16 8 3 26 7 40 9 14 2 42 7 63 10 23 4 37 11 37 20 0 17 -32 18 -117 6 l-52 -7 -3 69 c-3 65 -4 68 -19 51z"></path><path id="p7uq4Sp54" d="M670 1085 c0 -34 1 -35 41 -35 l41 0 -35 35 c-19 19 -38 35 -41 35 -3 0 -6 -16 -6 -35z"></path><path id="pZay81W78" d="M720 1110 c0 -5 7 -10 15 -10 8 0 15 5 15 10 0 6 -7 10 -15 10 -8 0 -15 -4 -15 -10z"></path><path id="p1Dh84ifBK" d="M816 1003 c9 -65 14 -67 14 -5 0 30 -4 52 -11 52 -7 0 -8 -16 -3 -47z"></path><path id="pMnnxolYc" d="M528 1023 c-21 -2 -38 -9 -38 -15 0 -5 7 -7 16 -4 9 3 31 6 50 6 19 0 34 5 34 10 0 6 -6 9 -12 8 -7 -1 -30 -3 -50 -5z"></path><path id="pvdX2boLG" d="M773 1006 c-13 -15 -7 -26 14 -26 7 0 13 9 13 20 0 23 -10 25 -27 6z"></path><path id="pQTCWQ6eT" d="M445 997 c-4 -10 -5 -21 -1 -24 10 -10 18 4 13 24 -4 17 -4 17 -12 0z"></path></g></g><g id="l6xRVbZWhH9kUUiGKAisEQT" fill="rgb(70,67,67)" style="transform: none;"><g><path id="pSTHP8Sbx" d="M450 1266 c0 -12 6 -13 33 -4 45 15 46 18 4 18 -26 0 -37 -4 -37 -14z"></path><path id="pCAlc5xVm" d="M126 1253 c20 -19 27 -23 147 -78 81 -36 97 -37 97 -5 0 10 15 33 33 49 l32 31 -37 0 c-34 0 -38 -3 -38 -25 0 -20 -5 -25 -26 -25 -14 0 -32 6 -39 14 -8 7 -34 20 -59 27 -26 7 -46 17 -46 21 0 4 -19 8 -42 8 -40 0 -41 -1 -22 -17z"></path><path id="pWhTH8EvG" d="M485 1245 l-30 -13 28 -1 c16 -1 35 6 43 14 20 19 1 20 -41 0z"></path><path id="pxOcsXoqR" d="M407 1193 c-20 -23 -33 -73 -18 -73 6 0 11 14 11 30 0 20 5 30 15 30 8 0 15 7 15 15 0 19 -3 19 -23 -2z"></path><path id="p6jFYzt56" d="M710 770 c0 -5 -49 -11 -112 -13 l-113 -3 127 -2 127 -2 3 -37 c2 -27 8 -39 21 -41 14 -3 17 5 17 52 l0 56 -35 0 c-19 0 -35 -4 -35 -10z"></path><path id="pOvLXLW4T" d="M402 683 l2 -78 3 72 4 72 32 4 c31 4 31 4 -5 5 l-38 2 2 -77z"></path><path id="pMa7Lnrfw" d="M861 718 c-1 -24 -5 -28 -31 -28 -23 0 -30 -4 -30 -20 0 -26 31 -26 54 -1 11 12 16 30 13 48 l-4 28 -2 -27z"></path><path id="pDJooX2Jq" d="M430 663 c0 -81 8 -113 26 -113 11 0 14 20 14 90 0 83 -1 90 -20 90 -18 0 -20 -7 -20 -67z"></path><path id="pUW4qepsp" d="M490 693 c0 -23 5 -33 15 -33 12 0 15 -13 15 -55 l0 -55 100 0 100 0 0 90 0 91 -115 -2 -115 -3 0 -33z"></path><path id="pSnKi7Gy0" d="M895 638 c3 -39 6 -72 7 -73 2 -1 20 -5 41 -8 36 -6 37 -5 37 25 0 21 6 31 20 35 22 6 26 18 10 28 -5 3 -10 19 -10 36 0 29 -1 29 -55 29 l-55 0 5 -72z"></path><path id="pDcE9aWrE" d="M847 633 c-3 -5 1 -14 9 -21 12 -11 14 -9 14 8 0 20 -14 27 -23 13z"></path><path id="pDITirFcr" d="M870 539 c0 -5 14 -9 31 -9 16 0 28 4 25 9 -3 5 -17 9 -31 9 -14 0 -25 -4 -25 -9z"></path></g></g><g id="l7YUQjdozfNBC4Vd0iAelDy" fill="rgb(108,61,48)" style="transform: none;"><g><path id="pxhiJD6xH" d="M690 1263 c0 -34 12 -63 26 -63 10 0 14 13 14 40 0 33 -3 40 -20 40 -12 0 -20 -7 -20 -17z"></path><path id="p16IYjIPH5" d="M1060 1240 c0 -45 23 -57 34 -17 11 41 7 57 -14 57 -17 0 -20 -7 -20 -40z"></path><path id="p1HBqR03s7" d="M661 1233 c-1 -18 4 -33 9 -33 12 0 12 17 0 45 -7 17 -9 15 -9 -12z"></path><path id="pekGgQHW" d="M714 1124 c3 -9 6 -18 6 -20 0 -2 6 -4 14 -4 8 0 16 -5 18 -12 7 -19 28 2 28 28 0 21 -4 24 -36 24 -29 0 -35 -3 -30 -16z"></path><path id="pJc0UH22W" d="M691 1093 c-1 -16 5 -23 17 -23 10 0 13 3 6 8 -6 4 -14 14 -17 22 -4 10 -6 8 -6 -7z"></path><path id="pH0KEQuN4" d="M1050 1085 c0 -20 -5 -25 -26 -25 -40 0 -54 -22 -54 -84 0 -49 2 -56 20 -56 18 0 20 7 20 57 l0 56 25 -23 c33 -31 46 -18 53 49 4 47 3 51 -17 51 -16 0 -21 -6 -21 -25z"></path><path id="pYuobCrqg" d="M495 1049 c-24 -4 -5 -5 50 -2 50 3 92 7 94 9 7 7 -102 2 -144 -7z"></path><path id="pAHewqWvF" d="M814 1023 c3 -21 6 -46 6 -55 0 -22 46 -72 59 -64 6 4 20 1 31 -6 18 -11 23 -10 36 6 21 29 18 36 -16 36 -20 0 -30 5 -30 15 0 8 -9 15 -19 15 -16 0 -21 9 -27 45 -5 36 -10 45 -26 45 -18 0 -20 -5 -14 -37z"></path><path id="pKRxym1xt" d="M528 1023 c-36 -4 -38 -6 -38 -38 0 -27 -4 -34 -22 -37 -14 -2 -24 -11 -26 -23 -12 -84 -43 -120 -117 -135 -38 -8 -55 -16 -55 -27 0 -13 10 -15 55 -11 48 4 55 2 55 -14 0 -10 7 -18 15 -18 8 0 15 7 15 15 0 13 21 15 125 15 118 0 125 1 125 20 0 19 -7 20 -137 20 -124 1 -136 2 -119 15 11 8 28 15 38 15 13 0 18 8 18 25 0 14 5 25 10 25 6 0 10 9 10 20 0 11 7 20 15 20 10 0 15 10 15 34 0 30 4 34 31 40 17 3 47 6 65 6 27 0 34 4 34 20 0 21 -16 23 -112 13z"></path><path id="pkfyAXGZf" d="M691 968 c-1 -38 -1 -38 39 -38 29 0 40 -4 40 -15 0 -9 9 -15 23 -15 13 0 28 -5 34 -11 7 -7 4 4 -5 24 -17 37 -52 57 -98 57 -13 0 -24 7 -27 18 -3 9 -5 0 -6 -20z"></path><path id="pKwNmjLDb" d="M410 954 c0 -5 -13 -18 -30 -27 -16 -10 -29 -21 -29 -25 3 -20 -2 -32 -15 -32 -13 0 -30 -39 -21 -48 9 -9 55 9 74 29 20 21 38 95 27 106 -3 4 -6 2 -6 -3z"></path><path id="pngVDHTmb" d="M875 870 c3 -5 16 -10 28 -10 18 0 19 2 7 10 -20 13 -43 13 -35 0z"></path><path id="pBAwj0aq6" d="M703 833 c-19 -4 -23 -11 -23 -39 0 -34 1 -34 44 -34 65 0 76 7 76 46 0 33 -1 34 -37 33 -21 -1 -48 -4 -60 -6z"></path><path id="phZhbr0t6" d="M860 790 c0 -20 -5 -30 -15 -30 -11 0 -15 -12 -15 -50 0 -27 4 -50 8 -50 16 0 32 25 32 51 0 22 6 29 30 34 26 6 30 11 30 41 0 32 -2 34 -35 34 -32 0 -35 -2 -35 -30z"></path><path id="pfDccjar" d="M178 789 c-30 -17 -20 -29 22 -29 41 0 57 21 24 34 -21 8 -26 7 -46 -5z"></path><path id="pEYUAzaxX" d="M458 723 c12 -2 32 -2 45 0 12 2 2 4 -23 4 -25 0 -35 -2 -22 -4z"></path><path id="pE9MqaQwu" d="M750 697 c0 -16 9 -26 30 -34 30 -11 30 -11 30 23 0 31 -3 34 -30 34 -25 0 -30 -4 -30 -23z"></path><path id="pDMXvZIk6" d="M110 694 c0 -32 40 -83 75 -94 40 -13 105 4 105 28 0 12 -11 13 -55 8 -45 -5 -55 -3 -55 9 0 8 -7 15 -15 15 -9 0 -15 9 -15 25 0 18 -5 25 -20 25 -12 0 -20 -7 -20 -16z"></path><path id="pldPqmP23" d="M460 605 c0 -19 -4 -35 -10 -35 -5 0 -10 -4 -10 -10 0 -5 7 -10 15 -10 14 0 33 -34 64 -112 12 -33 31 -37 31 -8 0 15 7 20 25 20 14 0 25 -4 25 -10 0 -5 15 -10 33 -10 31 0 35 4 47 42 7 24 18 52 26 63 21 29 16 44 -5 18 -11 -13 -26 -23 -35 -23 -9 0 -16 -7 -16 -15 0 -8 -4 -15 -10 -15 -5 0 -10 5 -10 10 0 6 -18 10 -40 10 -29 0 -40 -4 -40 -15 0 -26 -40 -17 -50 11 -14 35 -14 34 24 34 32 0 34 2 34 35 0 23 -5 35 -14 35 -8 0 -14 5 -14 10 0 6 -16 10 -35 10 -33 0 -35 -2 -35 -35z m210 -124 c0 -13 -85 -25 -102 -15 -9 6 -6 10 12 15 38 11 90 10 90 0z"></path><path id="p5CyDU6Uz" d="M845 630 c-3 -5 -17 -10 -31 -10 -13 0 -24 -4 -24 -10 0 -5 16 -10 35 -10 28 0 35 4 35 20 0 22 -5 26 -15 10z"></path><path id="pdF8tsfne" d="M943 583 c-18 -7 -16 -23 2 -23 8 0 23 -9 33 -21 16 -17 20 -17 25 -5 3 8 1 17 -6 20 -7 2 -4 5 6 5 9 1 17 8 17 16 0 15 -48 20 -77 8z"></path><path id="p1DAF2zzyy" d="M310 550 c0 -11 8 -28 18 -38 10 -10 17 -23 15 -28 -2 -6 8 -16 22 -22 14 -6 25 -15 25 -20 0 -13 36 -52 47 -52 6 0 16 -7 23 -15 7 -8 16 -13 20 -10 5 3 11 -1 14 -7 3 -7 4 8 2 33 -4 61 -45 152 -64 144 -8 -3 -16 3 -19 15 -4 17 -14 20 -54 20 -42 0 -49 -3 -49 -20z"></path><path id="piIyvbdLl" d="M780 563 c-52 -19 -73 -65 -85 -188 -6 -62 -6 -68 9 -56 10 9 28 11 51 7 22 -4 35 -3 35 4 0 5 8 10 19 10 25 0 44 23 30 37 -20 20 20 45 58 38 39 -7 63 7 63 36 0 15 -7 19 -36 19 -42 0 -43 22 0 30 26 5 26 6 10 28 -9 13 -22 21 -29 18 -7 -2 -21 2 -32 9 -18 14 -65 18 -93 8z"></path><path id="pG5wrVeft" d="M560 406 c0 -29 103 -32 108 -3 3 14 -5 17 -52 17 -42 0 -56 -4 -56 -14z"></path></g></g><g id="l5V9coE7JtiFuDiiserX1BF" fill="rgb(106,73,71)" style="transform: none;"><g><path id="pYYDhkc8I" d="M370 1225 l0 -34 26 24 c15 14 31 25 35 25 5 0 9 5 9 10 0 6 -16 10 -35 10 -33 0 -35 -2 -35 -35z"></path><path id="pKwYIFUXY" d="M420 1205 c-10 -12 -10 -15 4 -15 9 0 16 7 16 15 0 8 -2 15 -4 15 -2 0 -9 -7 -16 -15z"></path><path id="p17T2nWuSB" d="M250 1202 c0 -7 17 -18 63 -40 4 -2 7 8 7 22 0 23 -4 26 -35 26 -19 0 -35 -4 -35 -8z"></path><path id="pFzTR5IHJ" d="M600 776 c0 -17 31 -26 98 -26 39 0 52 -4 52 -15 0 -8 5 -15 10 -15 6 0 10 16 10 35 l0 35 -85 0 c-66 0 -85 -3 -85 -14z"></path><path id="p1CXM6LtKk" d="M440 710 c0 -17 7 -20 40 -20 33 0 40 3 40 20 0 17 -7 20 -40 20 -33 0 -40 -3 -40 -20z"></path><path id="poZZujTaC" d="M570 707 c0 -35 56 -50 84 -21 26 26 18 34 -34 34 -34 0 -50 -4 -50 -13z"></path><path id="pHnDo2FTR" d="M943 703 c-13 -2 -23 -10 -23 -18 0 -7 -6 -15 -12 -18 -7 -2 -10 -7 -7 -11 11 -11 59 5 59 20 0 8 5 14 10 14 6 0 10 5 10 10 0 6 -3 9 -7 9 -5 -1 -18 -4 -30 -6z"></path><path id="pLOwLkfj" d="M540 675 c0 -8 -8 -15 -19 -15 -10 0 -32 -5 -50 -11 -28 -10 -31 -15 -31 -55 0 -32 4 -44 15 -44 7 0 19 -8 24 -17 10 -17 10 -17 11 -1 0 13 11 18 47 20 44 3 77 28 36 28 -23 0 -26 50 -3 50 12 1 11 3 -3 14 -12 9 -14 16 -7 21 5 3 8 11 5 16 -9 14 -25 11 -25 -6z"></path><path id="p1EAFVyRr7" d="M980 652 c-33 -10 -50 -34 -39 -53 6 -13 6 -19 -1 -19 -5 0 -10 -4 -10 -10 0 -5 20 -10 45 -10 l45 0 0 39 c0 41 -15 62 -40 53z"></path><path id="pofcu2qml" d="M844 629 c-3 -6 -19 -9 -35 -7 -19 3 -29 0 -29 -8 0 -8 16 -12 45 -12 38 0 45 3 45 19 0 21 -15 25 -26 8z"></path></g></g><g id="l680byDXGjmiJrdP1doQiBn" fill="rgb(8,106,136)" style="transform: none;"><g><path id="p1BcgB4bMI" d="M421 1261 c-7 -5 -12 -13 -10 -19 3 -6 18 -3 39 8 33 18 33 19 10 19 -14 1 -31 -3 -39 -8z"></path><path id="pIDjk48Ki" d="M528 1263 c-10 -2 -18 -11 -18 -19 0 -11 15 -14 65 -14 63 0 65 -1 65 -25 0 -19 5 -25 21 -25 19 0 21 4 16 37 -4 20 -12 40 -19 45 -14 8 -100 9 -130 1z"></path><path id="p16kkMeHEM" d="M698 1225 c2 -19 6 -35 8 -35 2 0 4 16 4 35 0 19 -4 35 -8 35 -4 0 -6 -16 -4 -35z"></path><path id="p18MPloXUy" d="M454 1231 c-51 -31 -51 -41 0 -41 44 0 46 1 46 30 0 35 -5 36 -46 11z"></path><path id="p1YIUHh52" d="M376 1124 c-4 -15 -6 -27 -4 -28 2 -1 11 -8 21 -15 16 -12 17 -10 17 28 0 47 -24 58 -34 15z"></path><path id="pSyu7LvS1" d="M660 1115 c0 -22 -4 -25 -35 -25 -29 0 -35 -4 -35 -21 0 -19 5 -20 68 -18 37 1 82 -1 101 -5 24 -6 31 -5 27 3 -4 6 -13 11 -21 11 -32 0 -64 24 -70 51 -8 36 -35 39 -35 4z"></path><path id="pcsge9n6T" d="M801 1078 c0 -7 4 -22 9 -33 8 -18 9 -17 9 7 1 15 -3 30 -9 33 -5 3 -10 0 -9 -7z"></path><path id="pjpfRaEwc" d="M480 1060 c0 -21 23 -26 68 -14 41 11 26 34 -23 34 -38 0 -45 -3 -45 -20z"></path><path id="pUtIPxW6V" d="M628 1023 c12 -2 32 -2 45 0 12 2 2 4 -23 4 -25 0 -35 -2 -22 -4z"></path><path id="pKZvtZjCk" d="M725 1020 c3 -5 13 -10 21 -10 8 0 12 5 9 10 -3 6 -13 10 -21 10 -8 0 -12 -4 -9 -10z"></path></g></g><g id="l1EzVhOywkf9f6XbYpp9VaM" fill="rgb(148,70,50)" style="transform: none;"><g><path id="pKpIEd838" d="M694 1258 c4 -13 12 -51 19 -85 7 -39 16 -63 24 -63 7 0 13 -7 13 -15 0 -17 16 -20 25 -5 10 16 25 12 25 -7 0 -10 7 -31 15 -47 8 -15 15 -45 15 -65 0 -45 8 -55 28 -38 13 10 15 9 10 -10 -5 -20 -3 -21 30 -16 25 4 33 3 28 -5 -4 -7 -2 -12 4 -12 6 0 13 7 16 15 5 12 10 13 20 4 28 -23 45 -3 39 48 -8 62 6 86 32 55 34 -41 44 -16 50 132 l6 136 -43 0 -43 0 6 -60 7 -60 -40 0 c-29 0 -40 -4 -40 -15 0 -17 -40 -21 -56 -6 -5 5 -22 11 -39 13 -26 3 -31 9 -45 58 -14 48 -20 56 -45 61 -59 13 -68 11 -61 -13z"></path><path id="peQbmLKKf" d="M720 1060 c0 -5 10 -10 23 -10 18 0 19 2 7 10 -19 13 -30 13 -30 0z"></path><path id="piBsF0Ix2" d="M598 1023 c-36 -9 -20 -33 22 -33 29 0 40 -4 40 -15 0 -10 10 -15 33 -15 17 0 27 4 21 8 -6 4 -14 19 -18 35 -6 24 -11 27 -44 26 -20 -1 -45 -3 -54 -6z"></path><path id="pVH9r75y3" d="M830 879 c0 -5 10 -9 23 -9 12 0 33 -3 47 -7 14 -3 22 -2 18 2 -11 11 -88 24 -88 14z"></path><path id="plMB0XoGS" d="M680 816 c0 -29 4 -36 20 -36 11 0 20 -5 20 -11 0 -6 22 -10 53 -9 28 0 83 -4 121 -9 38 -6 72 -8 75 -5 3 2 -1 24 -9 46 -15 42 -16 42 -65 43 -27 1 -87 5 -132 10 l-83 8 0 -37z m80 -16 c-20 -13 -47 -13 -55 0 -4 6 9 10 32 10 28 0 34 -3 23 -10z"></path><path id="p10WD2rcZ3" d="M370 715 c0 -37 -4 -65 -10 -65 -5 0 -10 -6 -10 -14 0 -12 28 -25 53 -26 4 0 7 34 7 75 0 60 3 75 15 75 8 0 15 5 15 10 0 6 -16 10 -35 10 l-35 0 0 -65z"></path><path id="p1FTI3y0pM" d="M180 739 c-29 -16 -36 -26 -41 -59 -4 -31 -1 -45 13 -60 26 -27 48 -26 48 4 0 20 6 25 40 31 44 8 60 27 60 74 0 30 -1 31 -42 30 -24 -1 -59 -10 -78 -20z"></path><path id="pPXaCRSDc" d="M764 708 c-4 -6 -2 -14 4 -16 7 -2 10 -8 7 -12 -3 -5 4 -14 16 -21 31 -16 69 3 69 36 0 23 -4 25 -44 25 -25 0 -48 -5 -52 -12z"></path><path id="p17eK87dm" d="M480 535 c0 -14 32 -65 40 -65 6 0 10 16 10 35 0 31 -3 35 -25 35 -14 0 -25 -2 -25 -5z"></path><path id="p1BxRBkUJ1" d="M630 420 c0 -23 4 -30 20 -30 16 0 20 7 20 30 0 23 -4 30 -20 30 -16 0 -20 -7 -20 -30z"></path></g></g><g id="l62esof4TMgvgyvhYxpmiSe" fill="rgb(168,84,63)" style="transform: none;"><g><path id="pwJU04AtW" d="M1023 1264 c-7 -7 -13 -31 -13 -54 0 -33 3 -40 20 -40 21 0 25 25 11 81 -5 22 -8 25 -18 13z"></path><path id="pfAstKlGZ" d="M1061 1248 c1 -18 4 -44 9 -58 6 -23 8 -22 14 15 4 22 9 48 11 58 2 11 -3 17 -16 17 -15 0 -19 -7 -18 -32z"></path><path id="pZvGyMEbc" d="M772 1170 c6 -22 14 -40 19 -40 5 0 9 -11 9 -24 0 -14 7 -31 15 -40 8 -8 15 -19 15 -25 0 -6 7 -11 16 -11 12 0 14 5 9 18 -15 33 -18 75 -6 68 6 -4 11 -14 11 -23 0 -33 24 -93 37 -93 7 0 13 -9 13 -20 0 -11 4 -20 8 -20 4 0 6 33 4 73 -2 39 -2 70 1 67 6 -5 28 -119 30 -152 2 -28 26 -21 38 10 13 32 3 144 -14 154 -6 4 -8 11 -3 15 11 11 34 -24 47 -69 11 -43 25 -48 39 -15 9 19 10 18 7 -10 -2 -18 1 -33 6 -33 9 0 3 86 -9 137 -10 38 -34 28 -35 -14 -2 -31 -3 -33 -6 -10 -4 26 -6 27 -74 27 -39 0 -69 4 -69 10 0 6 -16 10 -35 10 -31 0 -35 3 -35 25 0 20 -5 25 -24 25 -23 0 -23 -2 -14 -40z"></path><path id="p7EtJdfk0" d="M708 1159 c4 -41 24 -61 44 -41 6 6 8 25 4 46 -6 29 -12 36 -29 36 -20 0 -22 -4 -19 -41z"></path><path id="pNMGmWcWM" d="M683 1135 c0 -27 2 -38 4 -22 2 15 2 37 0 50 -2 12 -4 0 -4 -28z"></path><path id="p1AZYvQUIw" d="M618 1023 c-10 -2 -18 -11 -18 -19 0 -10 13 -14 45 -14 38 0 45 3 45 20 0 15 -6 20 -27 19 -16 -1 -36 -3 -45 -6z"></path><path id="p185QxnSHF" d="M508 1013 c-36 -9 -20 -33 22 -33 33 0 40 3 40 20 0 20 -20 24 -62 13z"></path><path id="pg4XZBi2y" d="M438 883 c-6 -16 -25 -43 -42 -60 l-30 -33 38 0 c29 0 39 4 43 20 3 11 9 20 14 20 5 0 9 18 9 40 0 46 -15 52 -32 13z"></path><path id="p7v0tv4QP" d="M860 861 c0 -15 -11 -20 -62 -25 -64 -8 -66 -24 -3 -27 26 -1 25 -2 -12 -11 -26 -5 -43 -15 -43 -24 0 -11 16 -14 70 -14 69 0 86 9 53 29 -17 10 -17 10 0 11 10 0 17 8 17 20 0 15 7 20 25 20 30 0 33 15 6 30 -30 15 -51 12 -51 -9z"></path><path id="pG74frrK3" d="M206 792 c-13 -12 -5 -41 12 -45 9 -3 2 -5 -15 -6 -28 -1 -33 -5 -33 -25 0 -23 2 -24 30 -14 17 5 33 14 36 19 3 5 12 9 20 9 11 0 12 -4 4 -19 -6 -12 -26 -22 -49 -26 -29 -5 -38 -11 -34 -21 7 -20 73 -19 73 1 0 9 9 15 25 15 22 0 25 4 25 35 0 19 -4 35 -10 35 -5 0 -10 6 -10 13 0 14 -65 39 -74 29z"></path><path id="pUEUA8yTj" d="M119 739 c-14 -27 -3 -89 16 -89 11 0 15 14 15 55 0 57 -11 70 -31 34z"></path><path id="po0M4Y4Qu" d="M790 700 c0 -14 5 -18 17 -13 13 5 15 2 11 -15 -8 -29 6 -28 26 3 24 36 20 45 -19 45 -28 0 -35 -4 -35 -20z"></path><path id="p15Skf4aNN" d="M290 640 c0 -18 7 -20 55 -20 48 0 55 2 55 20 0 18 -7 20 -55 20 -48 0 -55 -2 -55 -20z"></path><path id="pQBfeJagO" d="M158 620 c12 -11 30 -20 42 -20 13 0 20 7 20 20 0 17 -7 20 -42 20 l-42 0 22 -20z"></path><path id="pKTWN7W6r" d="M837 623 c-12 -11 -8 -23 8 -23 8 0 15 7 15 15 0 16 -12 20 -23 8z"></path><path id="p9GrENW3p" d="M653 583 c-42 -4 -43 -5 -43 -39 0 -26 4 -34 18 -34 10 0 24 -8 31 -19 13 -17 15 -16 38 27 22 41 25 75 6 70 -4 -1 -27 -3 -50 -5z"></path></g></g><g id="l3vrjmds4SjuwhLBLE9lHuy" fill="rgb(13,140,179)" style="transform: none;"><g><path id="pUz7KX2TV" d="M450 1270 c0 -5 -7 -10 -15 -10 -8 0 -15 -4 -15 -10 0 -14 10 -12 50 10 l35 19 -27 1 c-16 0 -28 -4 -28 -10z"></path><path id="pyGXW8Ldk" d="M535 1259 c-27 -4 -54 -14 -60 -21 -5 -7 -17 -14 -25 -16 -44 -9 -96 -122 -56 -122 9 0 16 -8 16 -17 1 -28 26 -55 47 -50 10 3 30 8 46 11 30 7 37 31 10 38 -15 4 -17 14 -15 66 3 45 8 62 18 62 10 0 14 -13 14 -42 0 -24 3 -60 6 -80 6 -35 9 -38 38 -38 46 0 76 11 76 26 0 8 -7 14 -15 14 -12 0 -15 14 -15 70 0 56 3 70 15 70 24 0 18 27 -7 34 -26 7 -25 7 -93 -5z"></path><path id="pDKqhb5T8" d="M650 1170 c0 -33 3 -40 20 -40 21 0 25 16 14 58 -11 39 -34 27 -34 -18z"></path><path id="pWW1UwnLR" d="M700 1203 c0 -5 5 -15 10 -23 8 -12 10 -11 10 8 0 12 -4 22 -10 22 -5 0 -10 -3 -10 -7z"></path><path id="p9o4FjsbP" d="M690 1076 c0 -8 14 -17 31 -21 43 -10 45 -2 4 18 -29 14 -35 14 -35 3z"></path><path id="p144f9Cw81" d="M720 1016 c0 -8 4 -17 9 -20 11 -7 33 18 24 27 -12 12 -33 7 -33 -7z"></path><path id="pignsaIyV" d="M771 1001 c-10 -6 -10 -10 -1 -16 13 -8 24 -1 19 14 -3 6 -10 7 -18 2z"></path></g></g><g id="l6PuJqfTEEDhmvpOkbSFo0b" fill="rgb(190,95,69)" style="transform: none;"><g><path id="pICH3paLU" d="M950 1267 c0 -7 14 -23 30 -37 17 -14 30 -34 30 -47 0 -13 6 -23 14 -23 8 0 16 -6 19 -12 2 -7 8 -10 12 -6 4 4 2 21 -4 39 -6 18 -11 47 -11 65 0 34 -1 34 -45 34 -30 0 -45 -4 -45 -13z"></path><path id="pllXSzGV4" d="M1070 1223 c0 -67 5 -66 18 5 7 42 7 52 -4 52 -10 0 -14 -15 -14 -57z"></path><path id="pEUrExL99" d="M700 1239 c0 -40 29 -129 43 -129 6 0 8 24 4 67 -9 89 6 72 44 -55 8 -29 15 -38 21 -30 11 18 10 88 -2 88 -5 0 -10 16 -10 35 0 24 -5 35 -15 35 -8 0 -15 5 -15 10 0 6 -16 10 -35 10 -32 0 -35 -2 -35 -31z"></path><path id="pkkmqukUX" d="M865 1128 c-8 -8 -7 -27 1 -62 7 -28 15 -73 19 -99 5 -38 10 -47 23 -45 19 4 20 22 7 126 -5 42 -4 62 3 62 6 0 13 -8 15 -17 3 -10 5 -3 6 15 1 30 -1 32 -31 32 -18 -1 -38 -6 -43 -12z"></path><path id="pNJFyzpEQ" d="M827 1084 c-4 -4 -7 -25 -7 -46 0 -26 4 -38 14 -38 9 0 16 -13 19 -32 2 -21 4 -13 5 22 1 53 -17 108 -31 94z"></path><path id="p11sywOV8h" d="M944 1033 c3 -21 6 -53 6 -70 0 -22 5 -33 14 -33 23 0 26 14 20 79 -6 52 -10 61 -27 61 -17 0 -19 -5 -13 -37z"></path><path id="pEp3ZM3bW" d="M518 1013 c-23 -4 -28 -9 -28 -33 0 -17 -7 -34 -17 -40 -13 -7 18 -9 112 -4 72 4 134 9 138 11 5 3 -1 14 -12 24 -12 11 -21 26 -21 34 0 12 -15 15 -72 14 -40 -1 -85 -4 -100 -6z"></path><path id="pOhtrCo9i" d="M730 836 c0 -15 21 -21 113 -31 38 -4 57 -3 57 4 0 6 -16 11 -35 11 -24 0 -35 5 -35 15 0 11 -12 15 -50 15 -37 0 -50 -4 -50 -14z"></path><path id="pd4p7ch83" d="M186 789 c-43 -12 -66 -38 -66 -74 0 -42 14 -53 83 -61 53 -6 57 -5 57 14 0 11 5 24 10 27 6 3 10 24 10 46 0 34 -3 39 -23 39 -13 0 -27 4 -32 9 -6 4 -23 5 -39 0z m82 -71 c-6 -19 -55 -40 -81 -36 -19 3 -17 7 18 25 47 24 68 28 63 11z"></path><path id="pUFwUV9pS" d="M333 788 c-45 -15 -43 -38 2 -38 31 0 35 3 35 25 0 14 -1 25 -2 24 -2 -1 -18 -6 -35 -11z"></path><path id="p1CKvFN0U6" d="M778 783 c37 -3 52 -8 52 -19 0 -9 11 -14 35 -14 23 0 35 5 35 14 0 19 -33 26 -110 24 -63 -2 -63 -2 -12 -5z"></path><path id="p1AvezESZX" d="M750 705 c0 -18 4 -23 15 -18 10 3 15 1 13 -7 -2 -7 3 -15 10 -17 7 -3 11 1 10 9 -2 8 8 14 28 16 26 3 31 7 27 23 -4 15 -14 19 -54 19 -45 0 -49 -2 -49 -25z"></path><path id="pNAepZY4K" d="M750 615 c0 -26 7 -28 50 -16 l25 7 -32 17 c-41 22 -43 22 -43 -8z"></path><path id="pSFCRb2s7" d="M440 592 c0 -5 13 -26 30 -48 16 -21 37 -65 46 -97 23 -75 44 -76 44 -2 0 73 -30 135 -65 135 -14 0 -25 5 -25 10 0 6 -7 10 -15 10 -8 0 -15 -4 -15 -8z"></path><path id="p1CQAOlC5J" d="M590 545 c0 -34 1 -35 40 -35 29 0 40 4 40 15 0 8 -7 15 -15 15 -8 0 -15 5 -15 10 0 6 7 10 15 10 8 0 15 5 15 10 0 6 -18 10 -40 10 -39 0 -40 -1 -40 -35z"></path><path id="pqj2bTY1I" d="M648 493 c28 -5 24 -27 -6 -31 -18 -3 -22 -10 -22 -38 0 -27 4 -34 19 -34 14 0 22 12 30 44 15 62 14 66 -16 65 -25 -2 -25 -2 -5 -6z"></path></g></g><g id="l1YJkQVAtYTwAnK6EXYAwHa" fill="rgb(14,162,208)" style="transform: none;"><g><path id="pKHoW22GM" d="M458 1273 c-10 -2 -18 -9 -18 -14 0 -5 -8 -9 -18 -9 -24 0 -62 -41 -62 -66 1 -15 4 -14 16 9 8 15 39 40 72 57 52 26 55 35 10 23z"></path><path id="pdsHhk2eh" d="M494 1247 c-18 -9 -22 -23 -28 -95 -3 -46 -3 -88 0 -94 4 -6 1 -9 -7 -6 -10 4 -14 26 -14 86 0 45 -3 82 -6 82 -15 0 -45 -46 -54 -83 -10 -38 -8 -42 24 -74 26 -26 38 -32 55 -26 26 9 33 10 73 12 l32 1 -2 105 -2 105 -25 -1 c-14 -1 -35 -6 -46 -12z"></path><path id="pzZDPXF7" d="M590 1160 c0 -93 1 -100 20 -100 13 0 20 7 20 20 0 16 7 20 30 20 35 0 35 4 18 96 l-11 64 -39 0 -38 0 0 -100z"></path><path id="pemdjFfjq" d="M700 1219 c0 -13 5 -31 10 -39 7 -11 8 -5 4 20 -8 43 -14 51 -14 19z"></path></g></g><g id="l5omgorH3XDRSnUCZ5GTghq" fill="rgb(198,111,81)" style="transform: none;"><g><path id="pWAsE3HsP" d="M940 1270 c0 -14 25 -40 38 -40 11 0 22 -24 22 -46 0 -9 -11 -14 -31 -14 -22 0 -32 -5 -36 -20 -3 -11 -12 -20 -19 -20 -8 0 -14 -4 -14 -10 0 -5 6 -10 14 -10 14 0 26 -41 41 -142 3 -21 10 -38 15 -38 22 0 25 134 5 183 -4 10 -3 17 5 17 6 0 21 -22 33 -50 12 -27 27 -48 32 -46 11 3 11 123 0 173 -7 34 -35 58 -79 69 -17 4 -26 2 -26 -6z"></path><path id="pSYogaH57" d="M705 1198 c4 -13 9 -38 12 -55 5 -34 33 -47 33 -17 0 35 -24 94 -38 94 -10 0 -12 -6 -7 -22z"></path><path id="p15oGf5I0G" d="M793 1133 c9 -51 38 -188 43 -203 4 -13 6 -13 14 0 14 22 11 89 -5 135 -17 46 -19 65 -6 65 13 0 29 -48 42 -132 9 -55 17 -78 27 -78 12 0 13 12 8 63 -17 156 -28 177 -100 177 -25 0 -28 -3 -23 -27z"></path><path id="p1C7B4ashW" d="M525 963 c-30 -6 -65 -25 -65 -35 0 -10 40 -10 104 -2 36 5 46 11 46 25 0 15 -7 19 -32 18 -18 -1 -42 -3 -53 -6z"></path><path id="p1FYJdX00D" d="M820 857 c0 -48 11 -57 73 -57 15 0 27 -5 27 -11 0 -8 -16 -10 -50 -5 -32 4 -50 3 -50 -4 0 -5 11 -10 25 -10 16 0 25 -6 25 -15 0 -11 12 -15 49 -15 l49 0 -13 51 c-17 64 -28 77 -74 85 -20 4 -42 11 -48 17 -10 7 -13 -1 -13 -36z"></path><path id="p18JtAFpE6" d="M430 853 c-12 -17 -39 -40 -61 -52 -35 -20 -39 -26 -39 -62 0 -46 24 -89 51 -89 15 0 18 9 21 53 l3 52 103 3 c113 3 114 4 91 70 -12 35 -21 40 -94 48 -50 6 -54 5 -75 -23z"></path><path id="ppt1w2fx6" d="M135 760 c-21 -23 -24 -92 -5 -115 13 -15 62 -45 75 -45 7 0 7 44 -1 64 -3 9 -11 16 -16 16 -33 0 -50 72 -20 89 14 9 15 10 1 11 -9 0 -24 -9 -34 -20z"></path><path id="p1E4cUmM9i" d="M248 755 c2 -14 9 -25 14 -25 6 0 8 -7 4 -15 -3 -9 0 -15 9 -15 11 0 15 11 15 40 0 35 -3 40 -24 40 -19 0 -22 -4 -18 -25z"></path><path id="pE0TuJde6" d="M790 716 c0 -13 28 -26 58 -26 6 0 12 9 12 20 0 16 -7 20 -35 20 -23 0 -35 -5 -35 -14z"></path><path id="p111uQFysg" d="M590 550 c0 -27 3 -30 30 -30 19 0 30 -5 30 -14 0 -30 27 -24 40 10 8 19 17 34 22 34 4 0 8 7 8 15 0 12 -14 15 -65 15 l-65 0 0 -30z m90 0 c0 -5 -14 -10 -31 -10 -17 0 -28 4 -24 10 3 6 17 10 31 10 13 0 24 -4 24 -10z"></path><path id="pRETe2M1X" d="M530 436 c0 -40 3 -46 21 -46 18 0 20 5 17 42 -2 31 -8 44 -20 46 -15 3 -18 -4 -18 -42z"></path><path id="p17RcNDDKk" d="M620 415 c0 -19 5 -25 21 -25 15 0 19 4 15 16 -3 9 -6 20 -6 25 0 5 -7 9 -15 9 -9 0 -15 -9 -15 -25z"></path></g></g><g id="l2tSYMfGQ20HXhfEes7dGtj" fill="rgb(191,128,94)" style="transform: none;"><g><path id="pe9PMbzjw" d="M704 1233 c10 -96 18 -123 33 -123 11 0 13 6 9 23 -23 74 -16 130 11 95 12 -17 48 -145 64 -228 15 -81 25 -94 34 -41 6 39 -3 89 -27 138 -13 26 -6 38 16 30 8 -3 18 -23 21 -44 11 -61 16 -73 30 -73 11 0 13 11 8 51 -5 46 -4 51 13 47 12 -2 20 -13 22 -31 3 -21 8 -27 19 -23 8 3 17 6 19 6 10 0 3 39 -8 42 -7 3 -9 12 -5 22 5 13 13 16 29 10 13 -4 26 -11 29 -16 4 -6 10 15 14 47 12 96 -24 115 -211 115 l-126 0 6 -47z"></path><path id="p2JricMQF" d="M623 969 c-40 -4 -95 -12 -122 -19 -45 -11 -50 -14 -56 -47 -3 -20 -14 -47 -23 -62 -14 -20 -14 -23 -2 -16 27 17 83 22 119 10 19 -6 47 -63 33 -67 -4 -1 34 -4 83 -7 l90 -6 5 -30 c5 -29 7 -30 57 -30 45 -1 53 2 55 20 2 15 12 21 35 23 l33 3 -20 21 c-17 18 -34 22 -107 26 -87 4 -122 15 -90 28 9 3 58 2 109 -3 60 -7 97 -7 106 0 16 13 15 27 -3 27 -9 0 -12 6 -9 15 6 15 -9 20 -48 16 -11 -1 -31 16 -50 43 -25 36 -38 46 -61 46 -15 0 -36 4 -45 8 -9 4 -50 5 -89 1z"></path><path id="poLvTVuH4" d="M184 789 c-36 -10 -59 -34 -68 -71 -6 -26 -4 -28 25 -28 28 0 29 1 15 16 -31 31 -12 61 47 73 17 4 27 9 22 12 -6 4 -24 2 -41 -2z"></path><path id="p13UYk7llW" d="M350 790 c-8 -5 -37 -10 -65 -10 -27 0 -45 -4 -39 -8 6 -4 14 -19 18 -34 8 -33 -22 -58 -71 -58 -30 0 -31 -1 -23 -29 4 -16 6 -32 3 -35 -16 -15 56 -16 111 -2 36 10 74 14 89 11 24 -6 27 -4 27 20 0 15 -9 40 -21 56 -15 22 -18 37 -13 64 7 38 6 39 -16 25z"></path><path id="pzcRNe3QS" d="M700 697 c0 -13 -5 -28 -12 -35 -8 -8 -9 -18 -1 -34 19 -43 9 -48 -108 -48 -111 0 -130 7 -91 36 15 12 14 13 -15 14 -28 0 -33 -4 -33 -22 1 -27 22 -58 39 -58 16 0 61 -98 61 -131 0 -24 5 -27 38 -31 60 -5 70 0 74 38 l4 34 -42 0 c-44 0 -66 13 -38 24 28 11 92 6 97 -6 3 -7 6 4 6 25 1 35 -1 37 -29 37 -16 0 -30 5 -30 11 0 8 16 10 50 5 l50 -7 0 86 c0 50 -4 85 -10 85 -5 0 -10 -10 -10 -23z"></path><path id="p15axtQtbT" d="M750 615 c0 -28 14 -32 36 -10 13 12 12 15 -5 25 -28 14 -31 13 -31 -15z"></path><path id="p6UTGKXSw" d="M836 621 c-3 -5 1 -11 9 -15 9 -3 15 0 15 9 0 16 -16 20 -24 6z"></path></g></g><g id="l4C44nWKSQhsiTQOHCVIuTm" fill="rgb(14,189,243)" style="transform: none;"><g><path id="prOf3rnZ1" d="M472 1093 c3 -38 3 -38 52 -41 42 -3 48 -1 42 13 -3 9 -6 28 -6 41 0 22 -4 24 -46 24 l-45 0 3 -37z"></path><path id="p1BeYjKxka" d="M600 1095 l0 -35 68 1 c64 0 66 1 45 16 -13 8 -23 24 -23 34 0 16 -8 19 -45 19 -45 0 -45 0 -45 -35z"></path><path id="pfU8PKGEM" d="M377 1106 c-3 -8 5 -19 19 -26 13 -7 26 -21 30 -32 3 -10 10 -18 16 -18 5 0 7 7 4 16 -3 9 -6 29 -6 45 0 25 -4 29 -29 29 -16 0 -31 -6 -34 -14z"></path></g></g><g id="l4rwXzx1drdFw5RQ9YvDqhc" fill="rgb(202,156,131)" style="transform: none;"><g><path id="p1ElUosN1d" d="M387 1273 c-4 -3 -7 -15 -7 -25 0 -11 -7 -18 -20 -18 -16 0 -20 -7 -20 -35 0 -43 14 -45 35 -5 10 19 37 41 73 59 l57 30 -56 1 c-31 0 -59 -3 -62 -7z"></path><path id="p8sJf3JNS" d="M440 652 c0 -40 5 -73 12 -80 8 -8 53 -12 135 -12 l123 0 0 60 0 59 -33 -22 c-32 -21 -32 -22 -11 -25 29 -4 38 -27 18 -47 -11 -11 -36 -15 -88 -15 -126 0 -171 18 -106 43 25 9 30 16 25 34 -3 12 -1 24 4 27 5 3 7 15 4 26 -4 16 -14 20 -44 20 l-39 0 0 -68z"></path><path id="pbmxZ9oVY" d="M530 655 c0 -21 5 -25 28 -25 24 1 25 2 10 14 -13 10 -15 15 -6 24 9 9 7 12 -10 12 -17 0 -22 -6 -22 -25z"></path></g></g><g id="l78B4G6WHH8TDsDWAunoT1v" fill="rgb(218,194,192)" style="transform: none;"><g><path id="pJ125Y8RK" d="M140 1251 c0 -9 39 -30 93 -50 25 -10 27 -9 27 14 0 18 -5 25 -20 25 -11 0 -20 5 -20 10 0 6 -18 10 -40 10 -22 0 -40 -4 -40 -9z"></path><path id="piFVTpkxv" d="M290 1205 c0 -34 1 -35 40 -35 39 0 40 1 40 35 0 34 -1 35 -40 35 -39 0 -40 -1 -40 -35z"></path><path id="paFDrsdBf" d="M492 707 c-16 -18 -23 -60 -14 -75 6 -8 22 -10 55 -6 40 6 45 9 31 19 -12 8 -14 14 -5 19 16 10 4 26 -20 26 -10 0 -19 7 -19 15 0 18 -14 19 -28 2z"></path><path id="p7CjC4Y3s" d="M682 658 c-14 -14 -16 -28 -3 -28 9 0 24 30 18 36 -2 2 -9 -2 -15 -8z"></path></g></g><g id="l61SZ551Wrqd1IAsjHE6u3u" fill="rgb(251,192,192)" style="transform: none;"><g><path id="py0TzbMXS" d="M345 1260 c-10 -11 -38 -26 -62 -32 -24 -5 -43 -14 -43 -18 0 -7 103 -70 114 -70 2 0 7 12 11 28 9 36 51 80 86 87 54 12 41 25 -24 25 -52 0 -67 -4 -82 -20z"></path></g></g><g id="l6lVsd7qGjZP6w3VSoZMDry" fill="rgb(234,234,234)" style="transform: none;"><g><path id="p1Dwy8pOe6" d="M105 1270 c4 -6 28 -21 54 -34 81 -39 81 -39 81 -6 0 28 -3 30 -35 30 -19 0 -35 5 -35 10 0 6 -16 10 -36 10 -22 0 -33 -4 -29 -10z"></path><path id="pnk7aJNsi" d="M504 679 c-3 -6 -1 -16 5 -22 13 -13 65 8 56 23 -8 13 -52 13 -61 -1z"></path><path id="ptJs02NjK" d="M900 660 c0 -5 7 -10 15 -10 8 0 15 5 15 10 0 6 -7 10 -15 10 -8 0 -15 -4 -15 -10z"></path></g></g><g id="lO6lmkWsWPE3FHZt4FaLH6" fill="rgb(253,252,252)" style="transform: none;"><g><path id="pFqObkHPx" d="M136 1265 c-6 -17 22 -35 53 -35 12 0 21 -4 21 -9 0 -5 13 -14 30 -21 41 -17 111 4 152 47 l32 33 -141 0 c-115 0 -142 -3 -147 -15z"></path><path id="p4BLE5YRY" d="M510 674 c0 -12 6 -15 23 -10 12 3 27 6 32 7 12 1 -25 17 -42 18 -7 1 -13 -6 -13 -15z"></path></g></g></svg>