<?xml version="1.0" encoding="utf-8"?>
<!-- Generator: Adobe Illustrator 25.2.1, SVG Export Plug-In . SVG Version: 6.00 Build 0)  -->
<svg version="1.1" id="Layer_1" xmlns="http://www.w3.org/2000/svg" xmlns:xlink="http://www.w3.org/1999/xlink" x="0px" y="0px"
	 viewBox="0 0 512 512" style="enable-background:new 0 0 512 512;" xml:space="preserve">
<style type="text/css">
	.st0{fill:#4F545C;}
</style>
<path class="st0" d="M1183,1802.4v489.2h-45.5v-489.2c0-12.6,10.2-22.8,22.8-22.8l0,0C1172.8,1779.6,1183,1789.8,1183,1802.4z"/>
<path class="st0" d="M164.9,578.8v239.4c-27.2-15.7-45.5-45.1-45.5-78.8V578.8H164.9z"/>
<path class="st0" d="M1603.7,28.5c0-12.6-10.2,14.2-22.8,14.2c-12.6,0-22.8-26.8-22.8-14.2v950.2c0,50.3,40.8,91,91,91h159.3
	c12.6,0,22.8-10.2,22.8-22.8s-10.2-22.8-22.8-22.8h-159.2c-25.1,0-45.5-20.4-45.5-45.5V341.5c0-25.1,20.4-45.5,45.5-45.5h159.3
	c12.6,0,22.8-10.2,22.8-22.8s-10.2-22.8-22.8-22.8h-159.3c-25.1,0-45.5-20.4-45.5-45.5V28.5z"/>
<path class="st0" d="M392.6,806.4c0,0.8,0,1.6-0.1,2.4v0c-1.2,11.5-10.9,20.4-22.7,20.4H210.5c-3,0-5.8,0.3-8.7,0.8
	c-13.4-1.2-25.9-5.4-36.9-11.8c-27.2-15.7-45.5-45.1-45.5-78.8V601.6c0-12.6,10.2-22.8,22.8-22.8c11.9,0,21.7,9.1,22.7,20.7
	c0.1,0.7,0.1,1.4,0.1,2.1v136.5c0,25.1,20.4,45.5,45.5,45.5h159.3C382.4,783.6,392.6,793.8,392.6,806.4z"/>
<path class="st0" d="M392.5,807.6c0,0.4,0,0.8,0,1.2v0c-0.6,12-10.6,21.6-22.8,21.6H210.4c-2.9,0-5.7-0.1-8.6-0.4
	c-13.4-1.2-25.9-5.4-36.9-11.8c-27.2-15.7-45.5-45.1-45.5-78.8V578.8h45.5v20.7c0.1,0.7,0.1,1.4,0.1,2.1v137.7
	c0,25.1,20.4,45.5,45.5,45.5h159.2C382.3,784.8,392.5,795,392.5,807.6z"/>
<path class="st0" d="M164.9,20.7v218.7c-27.2-15.7-45.5-45.1-45.5-78.8V22.8c0-12.6,10.2-22.8,22.8-22.8
	C154.1,0,163.9,9.1,164.9,20.7z"/>
<path class="st0" d="M392.6,227.6c0,0.8,0,1.6-0.1,2.4v0c-1.2,11.5-10.9,20.4-22.7,20.4H210.5c-3,0-5.8,0.3-8.7,0.8
	c-13.4-1.2-25.9-5.4-36.9-11.8c-27.2-15.7-45.5-45.1-45.5-78.8V22.8c0-12.6,10.2-22.8,22.8-22.8c11.9,0,21.7,9.1,22.7,20.7
	c0.1,0.7,0.1,1.4,0.1,2.1v136.5c0,25.1,20.4,45.5,45.5,45.5h159.3C382.4,204.8,392.6,215,392.6,227.6z"/>
<path class="st0" d="M392.5,228.8c0,0.4,0,0.8,0,1.2v0c-0.6,12-10.6,21.6-22.8,21.6H210.4c-2.9,0-5.7-0.1-8.6-0.4
	c-13.4-1.2-25.9-5.4-36.9-11.8c-27.2-15.7-45.5-45.1-45.5-78.8V22.8c0-12.6,10.2-22.8,22.8-22.8c11.9,0,21.7,9.1,22.7,20.7
	c0.1,0.7,0.1,1.4,0.1,2.1v137.7c0,25.1,20.4,45.5,45.5,45.5h159.2C382.3,206,392.5,216.2,392.5,228.8z"/>
</svg>
